<svg width="17" height="17" viewBox="0 0 17 17" fill="none" xmlns="http://www.w3.org/2000/svg">
<path d="M0.5 16.5V14.7222C0.5 13.7792 0.874602 12.8749 1.5414 12.2081C2.20819 11.5413 3.11256 11.1667 4.05556 11.1667H7.61111C8.5541 11.1667 9.45847 11.5413 10.1253 12.2081C10.7921 12.8749 11.1667 13.7792 11.1667 14.7222V16.5M12.0556 0.615556C12.8204 0.811379 13.4983 1.25618 13.9823 1.87983C14.4664 2.50348 14.7292 3.27052 14.7292 4.06C14.7292 4.84948 14.4664 5.61652 13.9823 6.24017C13.4983 6.86382 12.8204 7.30862 12.0556 7.50444M16.5 16.5V14.7222C16.4955 13.9375 16.2315 13.1763 15.7491 12.5572C15.2668 11.9382 14.5932 11.4962 13.8333 11.3M2.27778 4.05556C2.27778 4.99855 2.65238 5.90292 3.31918 6.56971C3.98597 7.23651 4.89034 7.61111 5.83333 7.61111C6.77633 7.61111 7.68069 7.23651 8.34749 6.56971C9.01429 5.90292 9.38889 4.99855 9.38889 4.05556C9.38889 3.11256 9.01429 2.20819 8.34749 1.5414C7.68069 0.874602 6.77633 0.5 5.83333 0.5C4.89034 0.5 3.98597 0.874602 3.31918 1.5414C2.65238 2.20819 2.27778 3.11256 2.27778 4.05556Z" stroke="#DFE4E6" stroke-linecap="round" stroke-linejoin="round"/>
</svg>
