<svg width="21" height="22" viewBox="0 0 21 22" fill="none" xmlns="http://www.w3.org/2000/svg">
<path d="M3.83333 7.13158C3.83333 8.89038 4.53571 10.5772 5.78596 11.8208C7.0362 13.0645 8.73189 13.7632 10.5 13.7632M3.83333 7.13158C3.83333 5.37277 4.53571 3.68601 5.78596 2.44234C7.0362 1.19868 8.73189 0.5 10.5 0.5M3.83333 7.13158H17.1667M10.5 13.7632C12.2681 13.7632 13.9638 13.0645 15.214 11.8208C16.4643 10.5772 17.1667 8.89038 17.1667 7.13158M10.5 13.7632C11.9811 13.3951 12.7222 11.1846 12.7222 7.13158C12.7222 3.07858 11.9811 0.868053 10.5 0.5M10.5 13.7632C9.01889 13.3951 8.27778 11.1846 8.27778 7.13158C8.27778 3.07858 9.01889 0.868053 10.5 0.5M10.5 13.7632V17.0789M17.1667 7.13158C17.1667 5.37277 16.4643 3.68601 15.214 2.44234C13.9638 1.19868 12.2681 0.5 10.5 0.5M0.5 19.2895H8.27778M8.27778 19.2895C8.27778 19.8757 8.5119 20.438 8.92865 20.8526C9.3454 21.2671 9.91063 21.5 10.5 21.5C11.0894 21.5 11.6546 21.2671 12.0713 20.8526C12.4881 20.438 12.7222 19.8757 12.7222 19.2895M8.27778 19.2895C8.27778 18.7032 8.5119 18.1409 8.92865 17.7264C9.3454 17.3118 9.91063 17.0789 10.5 17.0789M12.7222 19.2895H20.5M12.7222 19.2895C12.7222 18.7032 12.4881 18.1409 12.0713 17.7264C11.6546 17.3118 11.0894 17.0789 10.5 17.0789" stroke="#DFE4E6" stroke-linecap="round" stroke-linejoin="round"/>
</svg>
