<svg width="17" height="16" viewBox="0 0 17 16" fill="none" xmlns="http://www.w3.org/2000/svg">
<path d="M8.50146 3.1489C8.50146 1.68606 9.68734 0.500122 11.1502 0.500122C12.6131 0.500122 13.799 1.686 13.799 3.1489C13.799 4.30213 13.062 5.28326 12.0332 5.64691" stroke="#797F89" stroke-miterlimit="10"/>
<path d="M12.0332 9.48004C13.0619 9.8437 13.799 10.8248 13.799 11.9781C13.799 13.4409 12.6131 14.6268 11.1502 14.6268C9.68728 14.6268 8.50146 13.4409 8.50146 11.978" stroke="#797F89" stroke-miterlimit="10"/>
<path d="M13.623 4.09235C15.2607 4.39932 16.5 5.83667 16.5 7.56346C16.5 9.29019 15.2608 10.7275 13.6232 11.0345" stroke="#797F89" stroke-miterlimit="10"/>
<path d="M4.96987 5.64679C3.94115 5.28313 3.2041 4.30206 3.2041 3.14878C3.2041 1.68594 4.38998 0.5 5.85282 0.5C7.31566 0.5 8.5016 1.68588 8.5016 3.14878V11.9779C8.5016 13.4408 7.31572 14.6267 5.85282 14.6267C4.38998 14.6267 3.2041 13.4408 3.2041 11.9779C3.2041 10.8247 3.94115 9.84358 4.96987 9.47992" stroke="#797F89" stroke-miterlimit="10"/>
<path d="M3.37697 4.09235C1.73928 4.39932 0.5 5.83667 0.5 7.56346C0.5 9.29019 1.73922 10.7275 3.3768 11.0345" stroke="#797F89" stroke-miterlimit="10"/>
</svg>
