<svg width="20" height="20" viewBox="0 0 20 20" fill="none" xmlns="http://www.w3.org/2000/svg">
<path d="M2.5 10.8333C2.5 10.6123 2.5878 10.4004 2.74408 10.2441C2.90036 10.0878 3.11232 10 3.33333 10H6.66667C6.88768 10 7.09964 10.0878 7.25592 10.2441C7.4122 10.4004 7.5 10.6123 7.5 10.8333V15.8333C7.5 16.0543 7.4122 16.2663 7.25592 16.4226C7.09964 16.5789 6.88768 16.6667 6.66667 16.6667H3.33333C3.11232 16.6667 2.90036 16.5789 2.74408 16.4226C2.5878 16.2663 2.5 16.0543 2.5 15.8333V10.8333Z" stroke="#797F89" stroke-width="0.833333" stroke-linecap="round" stroke-linejoin="round"/>
<path d="M12.5 7.50002C12.5 7.27901 12.5878 7.06705 12.7441 6.91076C12.9004 6.75448 13.1123 6.66669 13.3333 6.66669H16.6667C16.8877 6.66669 17.0996 6.75448 17.2559 6.91076C17.4122 7.06705 17.5 7.27901 17.5 7.50002V15.8334C17.5 16.0544 17.4122 16.2663 17.2559 16.4226C17.0996 16.5789 16.8877 16.6667 16.6667 16.6667H13.3333C13.1123 16.6667 12.9004 16.5789 12.7441 16.4226C12.5878 16.2663 12.5 16.0544 12.5 15.8334V7.50002Z" stroke="#797F89" stroke-width="0.833333" stroke-linecap="round" stroke-linejoin="round"/>
<path d="M7.5 4.16665C7.5 3.94563 7.5878 3.73367 7.74408 3.57739C7.90036 3.42111 8.11232 3.33331 8.33333 3.33331H11.6667C11.8877 3.33331 12.0996 3.42111 12.2559 3.57739C12.4122 3.73367 12.5 3.94563 12.5 4.16665V15.8333C12.5 16.0543 12.4122 16.2663 12.2559 16.4226C12.0996 16.5788 11.8877 16.6666 11.6667 16.6666H8.33333C8.11232 16.6666 7.90036 16.5788 7.74408 16.4226C7.5878 16.2663 7.5 16.0543 7.5 15.8333V4.16665Z" stroke="#797F89" stroke-width="0.833333" stroke-linecap="round" stroke-linejoin="round"/>
<path d="M3.3335 16.6667H15.0002" stroke="#797F89" stroke-width="0.833333" stroke-linecap="round" stroke-linejoin="round"/>
</svg>
