<svg width="15" height="14" viewBox="0 0 15 14" fill="none" xmlns="http://www.w3.org/2000/svg">
<path d="M5.06878 11.2483H2.75155C2.13698 11.2483 1.54758 11.0041 1.11301 10.5696C0.678448 10.135 0.434312 9.5456 0.434312 8.93103V2.75174C0.434312 2.13717 0.678448 1.54777 1.11301 1.11321C1.54758 0.678639 2.13698 0.434503 2.75155 0.434503H12.0205C12.6351 0.434503 13.2245 0.678639 13.659 1.11321C14.0936 1.54777 14.3377 2.13717 14.3377 2.75174V8.93103C14.3377 9.5456 14.0936 10.135 13.659 10.5696C13.2245 11.0041 12.6351 11.2483 12.0205 11.2483H9.70325L7.38602 13.5655L5.06878 11.2483Z" fill="#434EFF" stroke="#434EFF" stroke-width="0.833333" stroke-linecap="round" stroke-linejoin="round"/>
</svg>
