<svg width="17" height="19" viewBox="0 0 17 19" fill="none" xmlns="http://www.w3.org/2000/svg">
<path d="M0.5 3.5C0.5 4.29565 1.34285 5.05871 2.84315 5.62132C4.34344 6.18393 6.37827 6.5 8.5 6.5C10.6217 6.5 12.6566 6.18393 14.1569 5.62132C15.6571 5.05871 16.5 4.29565 16.5 3.5M0.5 3.5C0.5 2.70435 1.34285 1.94129 2.84315 1.37868C4.34344 0.816071 6.37827 0.5 8.5 0.5C10.6217 0.5 12.6566 0.816071 14.1569 1.37868C15.6571 1.94129 16.5 2.70435 16.5 3.5M0.5 3.5V9.5M16.5 3.5V9.5M0.5 9.5C0.5 10.2956 1.34285 11.0587 2.84315 11.6213C4.34344 12.1839 6.37827 12.5 8.5 12.5C10.6217 12.5 12.6566 12.1839 14.1569 11.6213C15.6571 11.0587 16.5 10.2956 16.5 9.5M0.5 9.5V15.5C0.5 16.2956 1.34285 17.0587 2.84315 17.6213C4.34344 18.1839 6.37827 18.5 8.5 18.5C10.6217 18.5 12.6566 18.1839 14.1569 17.6213C15.6571 17.0587 16.5 16.2956 16.5 15.5V9.5" stroke="#DFE4E6" stroke-linecap="round" stroke-linejoin="round"/>
</svg>
