<svg width="19" height="17" viewBox="0 0 19 17" fill="none" xmlns="http://www.w3.org/2000/svg">
<path d="M15.5 4.5V1.5C15.5 1.23478 15.3946 0.98043 15.2071 0.792893C15.0196 0.605357 14.7652 0.5 14.5 0.5H1.5C1.23478 0.5 0.98043 0.605357 0.792893 0.792893C0.605357 0.98043 0.5 1.23478 0.5 1.5V13.5C0.5 13.7652 0.605357 14.0196 0.792893 14.2071C0.98043 14.3946 1.23478 14.5 1.5 14.5H10.5M13.5 5.5H15.5M10.5 5.5C10.5 5.23478 10.6054 4.98043 10.7929 4.79289C10.9804 4.60536 11.2348 4.5 11.5 4.5H17.5C17.7652 4.5 18.0196 4.60536 18.2071 4.79289C18.3946 4.98043 18.5 5.23478 18.5 5.5V15.5C18.5 15.7652 18.3946 16.0196 18.2071 16.2071C18.0196 16.3946 17.7652 16.5 17.5 16.5H11.5C11.2348 16.5 10.9804 16.3946 10.7929 16.2071C10.6054 16.0196 10.5 15.7652 10.5 15.5V5.5Z" stroke="#DFE4E6" stroke-linecap="round" stroke-linejoin="round"/>
</svg>
