<svg width="16" height="20" viewBox="0 0 16 20" fill="none" xmlns="http://www.w3.org/2000/svg">
<path d="M6.79792 4.75916L7.28935 6.1239C7.83524 7.63857 9.02801 8.83134 10.5427 9.37723L11.9074 9.86866C12.0304 9.91333 12.0304 10.0877 11.9074 10.1318L10.5427 10.6232C9.02801 11.1691 7.83524 12.3619 7.28935 13.8766L6.79792 15.2413C6.75324 15.3643 6.57883 15.3643 6.53476 15.2413L6.04334 13.8766C5.49744 12.3619 4.30467 11.1691 2.79 10.6232L1.42527 10.1318C1.30226 10.0871 1.30226 9.91272 1.42527 9.86866L2.79 9.37723C4.30467 8.83134 5.49744 7.63857 6.04334 6.1239L6.53476 4.75916C6.57883 4.63554 6.75324 4.63554 6.79792 4.75916Z" stroke="#7988FF" stroke-linecap="round" stroke-linejoin="round"/>
<path d="M12.7164 1.03482L12.9008 1.54644C13.1056 2.11424 13.5529 2.5615 14.1207 2.76633L14.6323 2.95076C14.6785 2.96753 14.6785 3.03278 14.6323 3.04955L14.1207 3.23398C13.5529 3.43881 13.1056 3.88608 12.9008 4.45388L12.7164 4.96549C12.6996 5.01171 12.6344 5.01171 12.6176 4.96549L12.4332 4.45388C12.2283 3.88608 11.7811 3.43881 11.2133 3.23398L10.7017 3.04955C10.6554 3.03278 10.6554 2.96753 10.7017 2.95076L11.2133 2.76633C11.7811 2.5615 12.2283 2.11424 12.4332 1.54644L12.6176 1.03482C12.6344 0.988148 12.7001 0.988148 12.7164 1.03482Z" stroke="#7988FF" stroke-linecap="round" stroke-linejoin="round"/>
<path d="M12.7164 15.0347L12.9008 15.5463C13.1056 16.1141 13.5529 16.5613 14.1207 16.7662L14.6323 16.9506C14.6785 16.9674 14.6785 17.0326 14.6323 17.0494L14.1207 17.2338C13.5529 17.4387 13.1056 17.8859 12.9008 18.4537L12.7164 18.9653C12.6996 19.0116 12.6344 19.0116 12.6176 18.9653L12.4332 18.4537C12.2283 17.8859 11.7811 17.4387 11.2133 17.2338L10.7017 17.0494C10.6554 17.0326 10.6554 16.9674 10.7017 16.9506L11.2133 16.7662C11.7811 16.5613 12.2283 16.1141 12.4332 15.5463L12.6176 15.0347C12.6344 14.9884 12.7001 14.9884 12.7164 15.0347Z" stroke="#7988FF" stroke-linecap="round" stroke-linejoin="round"/>
</svg>
