<svg width="12" height="12" viewBox="0 0 12 12" fill="none" xmlns="http://www.w3.org/2000/svg">
<path d="M6.1351 0.609628L6.64055 2.0133C7.20202 3.57119 8.42882 4.79799 9.98671 5.35946L11.3904 5.86491C11.5169 5.91086 11.5169 6.09025 11.3904 6.13557L9.98671 6.64102C8.42882 7.20249 7.20202 8.42929 6.64055 9.98718L6.1351 11.3909C6.08915 11.5174 5.90976 11.5174 5.86444 11.3909L5.35899 9.98718C4.79752 8.42929 3.57072 7.20249 2.01283 6.64102L0.609156 6.13557C0.482636 6.08962 0.482636 5.91023 0.609156 5.86491L2.01283 5.35946C3.57072 4.79799 4.79752 3.57119 5.35899 2.0133L5.86444 0.609628C5.90976 0.482479 6.08915 0.482479 6.1351 0.609628Z" stroke="#7988FF" stroke-linecap="round" stroke-linejoin="round"/>
</svg>
