<svg width="3" height="11" viewBox="0 0 3 11" fill="none" xmlns="http://www.w3.org/2000/svg">
<path d="M0.5 5.5C0.5 5.66576 0.565848 5.82473 0.683058 5.94194C0.800269 6.05915 0.95924 6.125 1.125 6.125C1.29076 6.125 1.44973 6.05915 1.56694 5.94194C1.68415 5.82473 1.75 5.66576 1.75 5.5C1.75 5.33424 1.68415 5.17527 1.56694 5.05806C1.44973 4.94085 1.29076 4.875 1.125 4.875C0.95924 4.875 0.800269 4.94085 0.683058 5.05806C0.565848 5.17527 0.5 5.33424 0.5 5.5Z" stroke="#797F89" stroke-linecap="round" stroke-linejoin="round"/>
<path d="M0.5 9.875C0.5 10.0408 0.565848 10.1997 0.683058 10.3169C0.800269 10.4342 0.95924 10.5 1.125 10.5C1.29076 10.5 1.44973 10.4342 1.56694 10.3169C1.68415 10.1997 1.75 10.0408 1.75 9.875C1.75 9.70924 1.68415 9.55027 1.56694 9.43306C1.44973 9.31585 1.29076 9.25 1.125 9.25C0.95924 9.25 0.800269 9.31585 0.683058 9.43306C0.565848 9.55027 0.5 9.70924 0.5 9.875Z" stroke="#797F89" stroke-linecap="round" stroke-linejoin="round"/>
<path d="M0.5 1.125C0.5 1.29076 0.565848 1.44973 0.683058 1.56694C0.800269 1.68415 0.95924 1.75 1.125 1.75C1.29076 1.75 1.44973 1.68415 1.56694 1.56694C1.68415 1.44973 1.75 1.29076 1.75 1.125C1.75 0.95924 1.68415 0.800269 1.56694 0.683058C1.44973 0.565848 1.29076 0.5 1.125 0.5C0.95924 0.5 0.800269 0.565848 0.683058 0.683058C0.565848 0.800269 0.5 0.95924 0.5 1.125Z" stroke="#797F89" stroke-linecap="round" stroke-linejoin="round"/>
</svg>
