<svg width="19" height="17" viewBox="0 0 19 17" fill="none" xmlns="http://www.w3.org/2000/svg">
<path d="M15.5 8.5C16.2956 8.5 17.0587 8.18393 17.6213 7.62132C18.1839 7.05871 18.5 6.29565 18.5 5.5V3.5C18.5 2.70435 18.1839 1.94129 17.6213 1.37868C17.0587 0.816071 16.2956 0.5 15.5 0.5H3.5C2.70435 0.5 1.94129 0.816071 1.37868 1.37868C0.816071 1.94129 0.5 2.70435 0.5 3.5V5.5C0.5 6.29565 0.816071 7.05871 1.37868 7.62132C1.94129 8.18393 2.70435 8.5 3.5 8.5M15.5 8.5H3.5M15.5 8.5C16.2956 8.5 17.0587 8.81607 17.6213 9.37868C18.1839 9.94129 18.5 10.7043 18.5 11.5V13.5C18.5 14.2956 18.1839 15.0587 17.6213 15.6213C17.0587 16.1839 16.2956 16.5 15.5 16.5H3.5C2.70435 16.5 1.94129 16.1839 1.37868 15.6213C0.816071 15.0587 0.5 14.2956 0.5 13.5V11.5C0.5 10.7043 0.816071 9.94129 1.37868 9.37868C1.94129 8.81607 2.70435 8.5 3.5 8.5M4.5 4.5V4.51M4.5 12.5V12.51M8.5 4.5H14.5M8.5 12.5H14.5" stroke="#DFE4E6" stroke-linecap="round" stroke-linejoin="round"/>
</svg>
