<svg width="16" height="20" viewBox="0 0 16 20" fill="none" xmlns="http://www.w3.org/2000/svg">
<path d="M0.5 18.5V16.5C0.5 15.4391 0.921427 14.4217 1.67157 13.6716C2.42172 12.9214 3.43913 12.5 4.5 12.5H7.5M10.5 19.5L15.5 14.5M15.5 14.5V19M15.5 14.5H11M2.5 4.5C2.5 5.56087 2.92143 6.57828 3.67157 7.32843C4.42172 8.07857 5.43913 8.5 6.5 8.5C7.56087 8.5 8.57828 8.07857 9.32843 7.32843C10.0786 6.57828 10.5 5.56087 10.5 4.5C10.5 3.43913 10.0786 2.42172 9.32843 1.67157C8.57828 0.921427 7.56087 0.5 6.5 0.5C5.43913 0.5 4.42172 0.921427 3.67157 1.67157C2.92143 2.42172 2.5 3.43913 2.5 4.5Z" stroke="#DFE4E6" stroke-linecap="round" stroke-linejoin="round"/>
</svg>
