<svg width="12" height="12" viewBox="0 0 12 12" fill="none" xmlns="http://www.w3.org/2000/svg">
<path d="M0.521739 6C0.521739 6.71942 0.663438 7.43179 0.938747 8.09644C1.21406 8.76109 1.61758 9.36501 2.12628 9.87371C2.63499 10.3824 3.23891 10.7859 3.90356 11.0613C4.56821 11.3366 5.28058 11.4783 6 11.4783C6.71942 11.4783 7.43179 11.3366 8.09644 11.0613C8.76109 10.7859 9.36501 10.3824 9.87371 9.87371C10.3824 9.36501 10.7859 8.76109 11.0613 8.09644C11.3366 7.43179 11.4783 6.71942 11.4783 6C11.4783 4.54707 10.9011 3.15366 9.87371 2.12628C8.84634 1.09891 7.45292 0.521739 6 0.521739C4.54707 0.521739 3.15366 1.09891 2.12628 2.12628C1.09891 3.15366 0.521739 4.54707 0.521739 6Z" stroke="#797F89" stroke-linecap="round" stroke-linejoin="round"/>
<path d="M6 4.17391H6.00609" stroke="#797F89" stroke-linecap="round" stroke-linejoin="round"/>
<path d="M5.39164 6H6.00034V8.43478H6.60904" stroke="#797F89" stroke-linecap="round" stroke-linejoin="round"/>
</svg>
